Coordinates
version=1
nRows=7
nColumns=46
inDegrees=yes

Units are S.I. units (second, meters, Newtons, ...)
Angles are in degrees.

endheader
time	pelvis_tilt	pelvis_list	pelvis_rotation	pelvis_tx	pelvis_ty	pelvis_tz	bb_angle	bb_tx	bb_ty	bb_tz	hip_flexion_r	hip_adduction_r	hip_rotation_r	knee_angle_r	knee_angle_r_beta	ankle_angle_r	subtalar_angle_r	mtp_angle_r	crank_angle_r	hip_flexion_l	hip_adduction_l	hip_rotation_l	knee_angle_l	knee_angle_l_beta	ankle_angle_l	subtalar_angle_l	mtp_angle_l	crank_angle_l	lumbar_extension	lumbar_bending	lumbar_rotation	arm_flex_r	arm_add_r	arm_rot_r	elbow_flex_r	pro_sup_r	wrist_flex_r	wrist_dev_r	arm_flex_l	arm_add_l	arm_rot_l	elbow_flex_l	pro_sup_l	wrist_flex_l	wrist_dev_l
      0.00500000	    -12.62069249	     -2.61557176	      0.50076965	      0.07752488	      1.10059303	     -0.26494361	      0.00000000	      0.50000000	      0.00000000	      0.25000000	     76.23280337	     -3.87578481	     -1.00302348	     84.74660751	      1.47910733	     10.94687581	     -8.43261109	      0.00000000	      0.00000000	     45.82302630	     -9.57980873	      0.27240702	     72.65107267	      1.26800042	     15.44741293	     -1.33517016	      0.00000000	      0.00000000	    -54.40523632	      0.91210745	      3.94447287	     89.19072246	    -12.34702529	     41.19591878	     27.24029040	     30.42896047	      0.00000000	      0.00000000	     88.84832483	     -5.52327725	     42.25864865	     30.12878015	     31.97431833	      0.00000000	      0.00000000
      0.01000000	    -12.61153337	     -2.60351872	      0.45182872	      0.07753945	      1.10061295	     -0.26483814	      0.00000000	      0.50000000	      0.00000000	      0.25000000	     76.21867866	     -3.83422076	     -0.98843600	     84.73329227	      1.47887494	     10.97243512	     -8.37525981	      0.00000000	      0.00000000	     45.80369861	     -9.61915342	      0.22153347	     72.66739395	      1.26828528	     15.47831262	     -1.26402742	      0.00000000	      0.00000000	    -54.41672285	      0.85379986	      3.97001241	     89.18223777	    -12.08723420	     40.02509706	     26.89711866	     31.43179462	      0.00000000	      0.00000000	     88.83250898	     -5.21243630	     41.16197417	     29.75376774	     32.90688795	      0.00000000	      0.00000000
      0.01500000	    -12.67334288	     -2.60990689	      0.49391563	      0.07749788	      1.10056483	     -0.26491054	      0.00000000	      0.50000000	      0.00000000	      0.25000000	     76.25958979	     -3.88720286	     -1.02185469	     84.69127220	      1.47814155	     10.97393708	     -8.41192957	      0.00000000	      0.00000000	     45.89251099	     -9.57509279	      0.27604218	     72.67512074	      1.26842014	     15.44276893	     -1.38002708	      0.00000000	      0.00000000	    -54.33215818	      0.91787591	      3.98522841	     89.18230705	    -11.99073346	     39.74009561	     26.63715052	     32.19309328	      0.00000000	      0.00000000	     88.85933264	     -5.07568885	     41.01716505	     29.35823126	     33.65104240	      0.00000000	      0.00000000
      0.02000000	    -12.61900241	     -2.61492324	      0.46997110	      0.07748556	      1.10073885	     -0.26493612	      0.00000000	      0.50000000	      0.00000000	      0.25000000	     76.16245749	     -3.87048476	     -1.03001632	     84.65459501	      1.47750141	     11.03418243	     -8.34365871	      0.00000000	      0.00000000	     45.80492357	     -9.54448349	      0.31714358	     72.65135269	      1.26800531	     15.44583712	     -1.46662388	      0.00000000	      0.00000000	    -54.40990101	      0.91206530	      3.96470837	     89.20944672	    -12.27529939	     40.82828780	     26.70230290	     33.19604615	      0.00000000	      0.00000000	     88.88707952	     -5.49094166	     41.96118117	     29.51928860	     34.77902359	      0.00000000	      0.00000000
      0.02500000	    -12.68439674	     -2.71181719	      0.48226119	      0.07735428	      1.10068889	     -0.26497888	      0.00000000	      0.50000000	      0.00000000	      0.25000000	     76.22024442	     -3.87980437	     -1.14688468	     84.64867256	      1.47739804	     11.03997896	     -8.37584104	      0.00000000	      0.00000000	     45.94349580	     -9.60909048	      0.41975679	     72.73158877	      1.26940569	     15.43323092	     -1.42735760	      0.00000000	      0.00000000	    -54.31425821	      1.01485816	      4.08927174	     89.18926688	    -11.91124711	     39.23329821	     26.23054024	     34.24347927	      0.00000000	      0.00000000	     88.86018891	     -5.03625537	     40.74702380	     28.94755574	     35.70722397	      0.00000000	      0.00000000
      0.03000000	    -12.67624818	     -2.69441521	      0.47449381	      0.07738728	      1.10077670	     -0.26503261	      0.00000000	      0.50000000	      0.00000000	      0.25000000	     76.18456055	     -3.88867375	     -1.13665154	     84.61495837	      1.47680962	     11.07139820	     -8.35536639	      0.00000000	      0.00000000	     45.92735825	     -9.59385405	      0.39474101	     72.72430701	      1.26927860	     15.40129347	     -1.44324885	      0.00000000	      0.00000000	    -54.32141631	      1.01049718	      4.05446445	     89.21221522	    -12.34190858	     41.01072871	     26.52757515	     34.16902234	      0.00000000	      0.00000000	     88.91048959	     -5.52363547	     42.28220757	     29.21433486	     35.87526555	      0.00000000	      0.00000000
      0.03500000	    -12.65760113	     -2.70058027	      0.45023279	      0.07736229	      1.10081537	     -0.26493697	      0.00000000	      0.50000000	      0.00000000	      0.25000000	     76.15654372	     -3.84727572	     -1.12194944	     84.59883873	      1.47652828	     11.06591698	     -8.29310978	      0.00000000	      0.00000000	     45.90269999	     -9.61431889	      0.41907007	     72.73338081	      1.26943697	     15.45104498	     -1.42246076	      0.00000000	      0.00000000	    -54.34971734	      0.98598745	      4.07994893	     89.20811790	    -12.31239401	     40.58420963	     26.59958571	     34.30992410	      0.00000000	      0.00000000	     88.89569975	     -5.40617739	     41.80889426	     29.22553756	     36.01013650	      0.00000000	      0.00000000
